<svg width="53" height="31" viewBox="0 0 53 31" fill="none" xmlns="http://www.w3.org/2000/svg">
<path d="M3.60172 7.02174C8.09291 -1.67391 19.3209 -1.67392 23.8121 7.02174L25.8331 10.9348C30.3243 19.6304 24.7103 30.5 15.7279 30.5H11.6859C2.70349 30.5 -2.91051 19.6304 1.58068 10.9348L3.60172 7.02174Z" fill="#F2C791"/>
<path d="M33.3616 30.5C32.929 30.5 32.4388 30.1879 31.8908 29.5638C31.3429 28.9397 31.069 28.3156 31.069 27.6915C31.069 27.039 31.862 23.961 33.4481 18.4574C35.0341 12.9539 35.9425 8.7695 36.1732 5.90425C35.7983 5.6773 35.4667 5.32269 35.1783 4.84043C34.89 4.35816 34.7458 3.93262 34.7458 3.56383C34.7458 2.91135 35.7262 2.24468 37.6872 1.56383C39.6482 0.85461 41.811 0.5 44.1757 0.5C46.5692 0.5 48.6311 1.06738 50.3614 2.20213C52.1205 3.30851 53 4.88298 53 6.92553C53 8.3156 52.5963 9.62057 51.7888 10.8404C51.0102 12.0319 50.0441 13.0106 48.8906 13.7766C47.766 14.5426 46.6413 15.2234 45.5166 15.8191C44.392 16.4149 43.4259 16.9113 42.6184 17.3085C41.8398 17.6773 41.4505 17.9468 41.4505 18.117C41.4505 18.7411 41.9408 19.5496 42.9212 20.5426C43.9306 21.5355 44.6371 22.2163 45.0408 22.5851C45.4445 22.9539 45.978 23.4504 46.6413 24.0745C47.3046 24.6702 47.9246 25.2092 48.5013 25.6915C49.1069 26.1738 49.5827 26.5709 49.9288 26.883C50.3037 27.195 50.6786 27.5213 51.0535 27.8617C51.7744 28.5142 52.1349 29.039 52.1349 29.4362C52.1349 30.117 51.659 30.4574 50.7074 30.4574C48.9771 30.4574 46.5115 28.9823 43.3105 26.0319C40.1096 23.0532 38.1486 20.5284 37.4277 18.4574C36.0723 22.883 35.2937 25.4504 35.0918 26.1596C34.89 26.8404 34.6593 27.5496 34.3997 28.2872C33.9383 29.7624 33.5923 30.5 33.3616 30.5ZM39.8933 7.05319C39.8933 8.89716 39.2877 11.9468 38.0765 16.2021C38.5668 15.8333 39.504 15.2943 40.8882 14.5851C42.2724 13.8475 43.5124 13.1809 44.6082 12.5851C45.7329 11.961 46.7566 11.1383 47.6795 10.117C48.6023 9.09574 49.0637 8.03191 49.0637 6.92553C49.0637 5.16667 47.5064 4.28723 44.392 4.28723C42.9789 4.28723 41.3352 4.64184 39.4607 5.35106C39.7491 5.97518 39.8933 6.54255 39.8933 7.05319Z" fill="#F2C791"/>
</svg>
